<svg width="76" height="11" viewBox="0 0 76 11" fill="none" xmlns="http://www.w3.org/2000/svg">
<path d="M7.69125 4.00266C7.69125 4.57199 7.56059 5.09466 7.29925 5.57066C7.03792 6.03732 6.63659 6.41532 6.09525 6.70466C5.55392 6.99399 4.88192 7.13866 4.07925 7.13866H2.59525V10.6667H0.201252V0.838655H4.07925C4.86325 0.838655 5.52592 0.973988 6.06725 1.24465C6.60859 1.51532 7.01459 1.88865 7.28525 2.36465C7.55592 2.84065 7.69125 3.38665 7.69125 4.00266ZM3.89725 5.23466C4.35459 5.23466 4.69525 5.12732 4.91925 4.91266C5.14325 4.69799 5.25525 4.39466 5.25525 4.00266C5.25525 3.61066 5.14325 3.30732 4.91925 3.09266C4.69525 2.87799 4.35459 2.77066 3.89725 2.77066H2.59525V5.23466H3.89725ZM11.3316 2.75666V4.74466H14.5376V6.59266H11.3316V8.74866H14.9576V10.6667H8.93758V0.838655H14.9576V2.75666H11.3316ZM23.5818 0.838655V2.75666H20.9778V10.6667H18.5838V2.75666H15.9798V0.838655H23.5818ZM38.3073 0.838655L35.7453 10.6667H32.8473L31.2793 4.19866L29.6553 10.6667H26.7573L24.2653 0.838655H26.8273L28.2413 7.99266L29.9913 0.838655H32.6233L34.3033 7.99266L35.7313 0.838655H38.3073ZM41.9019 0.838655V10.6667H39.5079V0.838655H41.9019ZM50.7068 0.838655V2.75666H48.1028V10.6667H45.7088V2.75666H43.1048V0.838655H50.7068ZM58.9783 0.838655V2.75666H56.3743V10.6667H53.9803V2.75666H51.3763V0.838655H58.9783ZM62.5738 2.75666V4.74466H65.7798V6.59266H62.5738V8.74866H66.1998V10.6667H60.1798V0.838655H66.1998V2.75666H62.5738ZM72.766 10.6667L70.722 6.95666H70.148V10.6667H67.754V0.838655H71.772C72.5467 0.838655 73.2047 0.973988 73.746 1.24465C74.2967 1.51532 74.7073 1.88865 74.978 2.36465C75.2487 2.83132 75.384 3.35399 75.384 3.93266C75.384 4.58599 75.1973 5.16932 74.824 5.68266C74.46 6.19599 73.9187 6.55999 73.2 6.77466L75.468 10.6667H72.766ZM70.148 5.26266H71.632C72.0707 5.26266 72.3973 5.15532 72.612 4.94066C72.836 4.72599 72.948 4.42266 72.948 4.03066C72.948 3.65732 72.836 3.36332 72.612 3.14866C72.3973 2.93399 72.0707 2.82666 71.632 2.82666H70.148V5.26266Z" fill="#00ACC1"/>
</svg>
